<?xml version="1.0" encoding="UTF-8"?>
<svg xmlns="http://www.w3.org/2000/svg" width="1584" height="396" viewBox="0 0 1584 396" font-family="'Hanken Grotesk', system-ui, sans-serif">
  <defs>
    <linearGradient id="bg" x1="0" y1="0" x2="1" y2="1">
      <stop offset="0%" stop-color="#070b1c"/><stop offset="55%" stop-color="#0c1530"/><stop offset="100%" stop-color="#070b1c"/>
    </linearGradient>
    <radialGradient id="glow" cx="80%" cy="26%" r="56%">
      <stop offset="0%" stop-color="#435ef1" stop-opacity="0.24"/><stop offset="55%" stop-color="#435ef1" stop-opacity="0.06"/><stop offset="100%" stop-color="#435ef1" stop-opacity="0"/>
    </radialGradient>
    <linearGradient id="bar" x1="0" y1="0" x2="0" y2="1">
      <stop offset="0%" stop-color="#5a78f2"/><stop offset="100%" stop-color="#2c3ee5"/>
    </linearGradient>
    <linearGradient id="pj" x1="0" y1="0" x2="1" y2="1">
      <stop offset="0%" stop-color="#2c3ee5"/><stop offset="100%" stop-color="#435ef1"/>
    </linearGradient>
    <radialGradient id="node" cx="50%" cy="50%" r="50%">
      <stop offset="0%" stop-color="#6d8bf7" stop-opacity="0.55"/><stop offset="100%" stop-color="#6d8bf7" stop-opacity="0"/>
    </radialGradient>
    <pattern id="grid" width="46" height="46" patternUnits="userSpaceOnUse">
      <path d="M 46 0 L 0 0 0 46" fill="none" stroke="#6d8bf7" stroke-opacity="0.05" stroke-width="1"/>
    </pattern>
  </defs>

  <rect width="1584" height="396" fill="url(#bg)"/>
  <rect width="1584" height="396" fill="url(#grid)"/>
  <rect width="1584" height="396" fill="url(#glow)"/>

  <!-- left brand accent bar -->
  <rect x="0" y="0" width="6" height="396" fill="url(#bar)"/>

  
  <circle cx="1332" cy="184" r="145" fill="url(#node)" opacity="0.45"/>
  <ellipse cx="1332" cy="90" rx="68.0" ry="13.6" fill="none" stroke="#46588f" stroke-opacity="0.13" stroke-width="1.2"/>
  <ellipse cx="1332" cy="132" rx="103.7" ry="20.7" fill="none" stroke="#46588f" stroke-opacity="0.13" stroke-width="1.2"/>
  <ellipse cx="1332" cy="184" rx="116.0" ry="23.2" fill="none" stroke="#46588f" stroke-opacity="0.22" stroke-width="1.2"/>
  <ellipse cx="1332" cy="236" rx="103.7" ry="20.7" fill="none" stroke="#46588f" stroke-opacity="0.13" stroke-width="1.2"/>
  <ellipse cx="1332" cy="278" rx="68.0" ry="13.6" fill="none" stroke="#46588f" stroke-opacity="0.13" stroke-width="1.2"/>
  <ellipse cx="1332" cy="184" rx="116.0" ry="116" fill="none" stroke="#46588f" stroke-opacity="0.13" stroke-width="1.2"/>
  <ellipse cx="1332" cy="184" rx="65.0" ry="116" fill="none" stroke="#46588f" stroke-opacity="0.13" stroke-width="1.2"/>
  <ellipse cx="1332" cy="184" rx="23.2" ry="116" fill="none" stroke="#46588f" stroke-opacity="0.13" stroke-width="1.2"/>
  <line x1="1332" y1="68" x2="1332" y2="300" stroke="#46588f" stroke-opacity="0.13" stroke-width="1.2"/>
  <circle cx="1332" cy="184" r="116" fill="none" stroke="#6d8bf7" stroke-opacity="0.32" stroke-width="1.6"/>
  <path d="M 1396 104 Q 1454 14 1512 64" fill="none" stroke="#6d8bf7" stroke-opacity="0.72" stroke-width="1.6"/>
  <circle cx="1512" cy="64" r="15" fill="url(#node)" opacity="0.6"/>
  <circle cx="1396" cy="104" r="2.6" fill="#6d8bf7"/>
  <circle cx="1512" cy="64" r="4.5" fill="#6d8bf7"/>
  <path d="M 1428 212 Q 1476 174 1524 244" fill="none" stroke="#6d8bf7" stroke-opacity="0.72" stroke-width="1.6"/>
  <circle cx="1524" cy="244" r="15" fill="url(#node)" opacity="0.6"/>
  <circle cx="1428" cy="212" r="2.6" fill="#6d8bf7"/>
  <circle cx="1524" cy="244" r="4.5" fill="#6d8bf7"/>
  <path d="M 1350 80 Q 1401 -9 1452 30" fill="none" stroke="#fb7185" stroke-opacity="0.72" stroke-width="1.6"/>
  <circle cx="1452" cy="30" r="15" fill="url(#node)" opacity="0.6"/>
  <circle cx="1350" cy="80" r="2.6" fill="#fb7185"/>
  <circle cx="1452" cy="30" r="5" fill="#fb7185"/>
  <path d="M 1262 266 Q 1247 252 1232 330" fill="none" stroke="#46588f" stroke-opacity="0.4" stroke-width="1.6"/>
  
  <circle cx="1262" cy="266" r="2.6" fill="#46588f"/>
  <circle cx="1232" cy="330" r="4.5" fill="#46588f"/>

  <!-- PJ mark -->
  <rect x="100" y="110" width="66" height="66" rx="15" fill="url(#pj)"/>
  <text x="133" y="154" text-anchor="middle" font-size="30" font-weight="800" fill="#ffffff">PJ</text>

  <!-- name + role -->
  <text x="186" y="146" font-size="52" font-weight="800" letter-spacing="-0.5" fill="#ffffff">Pranith Jain</text>
  <text x="188" y="178" font-size="17" font-weight="700" letter-spacing="2.8" fill="#a1b6fb">CERTIFIED CYBER CRIMINOLOGIST · OSINT · THREAT INTEL · AI SECURITY</text>

  <!-- tagline -->
  <text x="100" y="262" font-size="29" font-weight="400" fill="#dbe3f4">Edge-native security tooling &amp; a live threat-intelligence platform,</text>
  <text x="100" y="300" font-size="29" font-weight="400" fill="#94a3b8">built at the intersection of <tspan fill="#a1b6fb" font-weight="600">AI, OSINT &amp; detection</tspan>.</text>

  <!-- work strip (no metrics) — shifted right of x=200 so the circular
       profile-photo overlap (bottom-left ~x12–170) never hides it -->
  <text x="206" y="356" font-size="15" font-weight="700" letter-spacing="2.5" fill="#5b6b8f"><tspan fill="#a1b6fb">pranithjain.qzz.io</tspan>   ·   CRUCIBLE   ·   PANOPTICON   ·   SCOUT   ·   ARGUS</text>
</svg>