<?xml version="1.0" encoding="UTF-8"?>
<svg xmlns="http://www.w3.org/2000/svg" width="1584" height="396" viewBox="0 0 1584 396" font-family="'Hanken Grotesk', system-ui, sans-serif">
  <defs>
    <linearGradient id="bg" x1="0" y1="0" x2="1" y2="1">
      <stop offset="0%" stop-color="#070b1c"/><stop offset="55%" stop-color="#0c1530"/><stop offset="100%" stop-color="#070b1c"/>
    </linearGradient>
    <radialGradient id="glow" cx="80%" cy="26%" r="56%">
      <stop offset="0%" stop-color="#435ef1" stop-opacity="0.24"/><stop offset="55%" stop-color="#435ef1" stop-opacity="0.06"/><stop offset="100%" stop-color="#435ef1" stop-opacity="0"/>
    </radialGradient>
    <linearGradient id="bar" x1="0" y1="0" x2="0" y2="1">
      <stop offset="0%" stop-color="#5a78f2"/><stop offset="100%" stop-color="#2c3ee5"/>
    </linearGradient>
    <linearGradient id="pj" x1="0" y1="0" x2="1" y2="1">
      <stop offset="0%" stop-color="#2c3ee5"/><stop offset="100%" stop-color="#435ef1"/>
    </linearGradient>
    <radialGradient id="node" cx="50%" cy="50%" r="50%">
      <stop offset="0%" stop-color="#6d8bf7" stop-opacity="0.55"/><stop offset="100%" stop-color="#6d8bf7" stop-opacity="0"/>
    </radialGradient>
    <pattern id="grid" width="46" height="46" patternUnits="userSpaceOnUse">
      <path d="M 46 0 L 0 0 0 46" fill="none" stroke="#6d8bf7" stroke-opacity="0.05" stroke-width="1"/>
    </pattern>
  </defs>

  <rect width="1584" height="396" fill="url(#bg)"/>
  <rect width="1584" height="396" fill="url(#grid)"/>
  <rect width="1584" height="396" fill="url(#glow)"/>

  <!-- left brand accent bar -->
  <rect x="0" y="0" width="6" height="396" fill="url(#bar)"/>

  
  <!-- scan rings centered on the hub -->
  <g fill="none" stroke="#6d8bf7">
    <circle cx="1300" cy="168" r="64" stroke-opacity="0.16" stroke-width="1.4"/>
    <circle cx="1300" cy="168" r="116" stroke-opacity="0.10" stroke-width="1.4"/>
    <circle cx="1300" cy="168" r="176" stroke-opacity="0.05" stroke-width="1.4"/>
  </g>
  <line x1="1300" y1="168" x2="1168" y2="92" stroke="#46588f" stroke-opacity="0.38" stroke-width="1.3"/>
  <line x1="1300" y1="168" x2="1452" y2="104" stroke="#46588f" stroke-opacity="0.38" stroke-width="1.3"/>
  <line x1="1300" y1="168" x2="1512" y2="214" stroke="#46588f" stroke-opacity="0.38" stroke-width="1.3"/>
  <line x1="1300" y1="168" x2="1392" y2="292" stroke="#46588f" stroke-opacity="0.38" stroke-width="1.3"/>
  <line x1="1300" y1="168" x2="1206" y2="258" stroke="#46588f" stroke-opacity="0.38" stroke-width="1.3"/>
  <line x1="1300" y1="168" x2="1436" y2="196" stroke="#46588f" stroke-opacity="0.38" stroke-width="1.3"/>
  <line x1="1300" y1="168" x2="1238" y2="158" stroke="#46588f" stroke-opacity="0.38" stroke-width="1.3"/>
  <line x1="1168" y1="92" x2="1262" y2="86" stroke="#46588f" stroke-opacity="0.38" stroke-width="1.3"/>
  <line x1="1168" y1="92" x2="1238" y2="158" stroke="#46588f" stroke-opacity="0.38" stroke-width="1.3"/>
  <line x1="1452" y1="104" x2="1436" y2="196" stroke="#46588f" stroke-opacity="0.38" stroke-width="1.3"/>
  <line x1="1452" y1="104" x2="1262" y2="86" stroke="#46588f" stroke-opacity="0.38" stroke-width="1.3"/>
  <line x1="1206" y1="258" x2="1126" y2="182" stroke="#46588f" stroke-opacity="0.38" stroke-width="1.3"/>
  <line x1="1206" y1="258" x2="1330" y2="326" stroke="#46588f" stroke-opacity="0.38" stroke-width="1.3"/>
  <line x1="1392" y1="292" x2="1330" y2="326" stroke="#46588f" stroke-opacity="0.38" stroke-width="1.3"/>
  <line x1="1512" y1="214" x2="1436" y2="196" stroke="#46588f" stroke-opacity="0.38" stroke-width="1.3"/>
  <line x1="1126" y1="182" x2="1238" y2="158" stroke="#46588f" stroke-opacity="0.38" stroke-width="1.3"/>
  <circle cx="1300" cy="168" r="30.599999999999998" fill="url(#node)"/>
  <circle cx="1168" cy="92" r="17" fill="url(#node)"/>
  <circle cx="1452" cy="104" r="20.4" fill="url(#node)"/>
  <circle cx="1392" cy="292" r="17" fill="url(#node)"/>
  <circle cx="1436" cy="196" r="20.4" fill="url(#node)"/>
  <circle cx="1300" cy="168" r="9" fill="#6d8bf7"/>
  <circle cx="1168" cy="92" r="5" fill="#6d8bf7"/>
  <circle cx="1452" cy="104" r="6" fill="#6d8bf7"/>
  <circle cx="1512" cy="214" r="5" fill="#46588f"/>
  <circle cx="1392" cy="292" r="5" fill="#fb7185"/>
  <circle cx="1206" cy="258" r="5" fill="#46588f"/>
  <circle cx="1126" cy="182" r="4" fill="#46588f"/>
  <circle cx="1436" cy="196" r="6" fill="#6d8bf7"/>
  <circle cx="1262" cy="86" r="4" fill="#46588f"/>
  <circle cx="1330" cy="326" r="4" fill="#46588f"/>
  <circle cx="1238" cy="158" r="4" fill="#46588f"/>

  <!-- PJ mark -->
  <rect x="100" y="110" width="66" height="66" rx="15" fill="url(#pj)"/>
  <text x="133" y="154" text-anchor="middle" font-size="30" font-weight="800" fill="#ffffff">PJ</text>

  <!-- name + role -->
  <text x="186" y="146" font-size="52" font-weight="800" letter-spacing="-0.5" fill="#ffffff">Pranith Jain</text>
  <text x="188" y="178" font-size="17" font-weight="700" letter-spacing="3.2" fill="#a1b6fb">CERTIFIED CYBER CRIMINOLOGIST · DFIR · THREAT INTEL</text>

  <!-- tagline -->
  <text x="100" y="262" font-size="29" font-weight="400" fill="#dbe3f4">Edge-native security tooling &amp; a live threat-intelligence platform,</text>
  <text x="100" y="300" font-size="29" font-weight="400" fill="#94a3b8">built at the intersection of <tspan fill="#a1b6fb" font-weight="600">AI, detection &amp; DFIR</tspan>.</text>

  <!-- work strip (no metrics) — shifted right of x=200 so the circular
       profile-photo overlap (bottom-left ~x12–170) never hides it -->
  <text x="206" y="356" font-size="15" font-weight="700" letter-spacing="2.5" fill="#5b6b8f"><tspan fill="#a1b6fb">pranithjain.qzz.io</tspan>   ·   CRUCIBLE   ·   PANOPTICON   ·   SCOUT   ·   ARGUS</text>
</svg>